<svg xmlns="http://www.w3.org/2000/svg" width="434" height="432" viewBox="0 0 434 432" version="1.1">
	<path d="M 0.015 1.750 C 0.025 2.829, 0.312 3.078, 0.765 2.400 C 1.169 1.795, 2.175 1.043, 3 0.729 C 4.002 0.347, 3.753 0.132, 2.250 0.079 C 0.738 0.026, 0.005 0.574, 0.015 1.750 M 429.250 0.689 C 430.212 0.941, 431 1.478, 431 1.882 C 431 2.287, 431.661 3.491, 432.468 4.559 C 433.857 6.395, 433.938 6.324, 433.968 3.250 C 433.998 0.220, 433.780 0.008, 430.750 0.116 C 428.962 0.180, 428.288 0.438, 429.250 0.689 M 205.422 53.885 C 201.075 56.535, 54.326 203.469, 52.501 206.997 C 50.747 210.390, 50.470 222.476, 52.052 226.636 C 53.498 230.441, 201.803 378.606, 206.626 381.064 C 209.037 382.293, 212.459 383, 216 383 C 219.541 383, 222.963 382.293, 225.374 381.064 C 230.197 378.606, 378.502 230.441, 379.948 226.636 C 381.530 222.476, 381.253 210.390, 379.499 206.997 C 377.674 203.469, 230.925 56.535, 226.578 53.885 C 222.249 51.245, 209.751 51.245, 205.422 53.885 M 213.588 63.746 C 211.077 64.354, 63 212.468, 63 214.371 C 63 215.175, 62.438 216.096, 61.750 216.417 C 60.750 216.883, 60.750 217.117, 61.750 217.583 C 62.438 217.904, 63 218.959, 63 219.928 C 63 220.928, 95.333 254.037, 137.750 296.472 C 208.280 367.032, 212.698 371.253, 216 371.253 C 219.302 371.253, 223.720 367.032, 294.250 296.472 C 336.667 254.037, 369 220.928, 369 219.928 C 369 218.959, 369.562 217.904, 370.250 217.583 C 371.250 217.117, 371.250 216.883, 370.250 216.417 C 369.563 216.096, 369 215.175, 369 214.371 C 369 212.088, 220.879 64.420, 217.972 63.805 C 216.612 63.518, 214.639 63.491, 213.588 63.746 M 181.646 242.655 C 153.976 270.334, 151 273.627, 151 276.573 C 151 281.813, 151.859 283, 155.650 283 C 158.818 283, 161.311 280.776, 187.543 254.552 L 216 226.105 244.457 254.552 C 270.689 280.776, 273.182 283, 276.350 283 C 280.141 283, 281 281.813, 281 276.573 C 281 273.627, 278.024 270.334, 250.354 242.655 C 221.176 213.468, 219.531 212, 216 212 C 212.469 212, 210.824 213.468, 181.646 242.655 M 432.531 429.293 C 432.103 430.279, 432.034 431.367, 432.376 431.710 C 433.392 432.725, 434.211 431.299, 433.743 429.328 C 433.329 427.581, 433.275 427.580, 432.531 429.293" stroke="none" fill="currentColor" fill-rule="evenodd"/>
</svg>